<?xml version="1.0" encoding="UTF-8" standalone="no"?>
<svg
   height="16"
   width="16"
   viewBox="0 0 409.6 409.6"
   version="1.1"
   id="svg1"
   sodipodi:docname="download-solid.svg"
   inkscape:export-filename="download-solid2.svg"
   inkscape:export-xdpi="96"
   inkscape:export-ydpi="96"
   xmlns:inkscape="http://www.inkscape.org/namespaces/inkscape"
   xmlns:sodipodi="http://sodipodi.sourceforge.net/DTD/sodipodi-0.dtd"
   xmlns="http://www.w3.org/2000/svg"
   xmlns:svg="http://www.w3.org/2000/svg">
  <defs
     id="defs1" />
  <sodipodi:namedview
     id="namedview1"
     pagecolor="#505050"
     bordercolor="#eeeeee"
     borderopacity="1"
     inkscape:showpageshadow="0"
     inkscape:pageopacity="0"
     inkscape:pagecheckerboard="0"
     inkscape:deskcolor="#505050" />
  <!--!Font Awesome Free 6.7.2 by @fontawesome - https://fontawesome.com License - https://fontawesome.com/license/free Copyright 2025 Fonticons, Inc.-->
  <path
     d="M 230.4,25.6 C 230.4,11.44 218.96,0 204.8,0 190.64,0 179.2,11.44 179.2,25.6 v 194.16 l -58.72,-58.72 c -10,-10 -26.24,-10 -36.24,0 -10,10 -10,26.24 0,36.24 l 102.4,102.4 c 10,10 26.24,10 36.24,0 l 102.4,-102.4 c 10,-10 10,-26.24 0,-36.24 -10,-10 -26.24,-10 -36.24,0 L 230.4,219.76 Z M 51.2,281.6 C 22.96,281.6 0,304.56 0,332.8 v 25.6 c 0,28.24 22.96,51.2 51.2,51.2 h 307.2 c 28.24,0 51.2,-22.96 51.2,-51.2 v -25.6 c 0,-28.24 -22.96,-51.2 -51.2,-51.2 h -81.2 l -36.24,36.24 c -20,20 -52.4,20 -72.4,0 L 132.4,281.6 Z m 294.4,44.8 a 19.2,19.2 0 1 1 0,38.4 19.2,19.2 0 1 1 0,-38.4 z"
     id="path1"
     style="fill:#ff8080;stroke-width:0.8" />
</svg>
