<?xml version="1.0" encoding="UTF-8" standalone="no"?>
<svg
   width="15.99839"
   height="15.99939"
   fill="currentColor"
   class="bi bi-patch-check-fill"
   viewBox="0 0 15.99839 15.99939"
   version="1.1"
   id="svg1"
   sodipodi:docname="patch-check-fill.svg"
   xmlns:inkscape="http://www.inkscape.org/namespaces/inkscape"
   xmlns:sodipodi="http://sodipodi.sourceforge.net/DTD/sodipodi-0.dtd"
   xmlns="http://www.w3.org/2000/svg"
   xmlns:svg="http://www.w3.org/2000/svg">
  <defs
     id="defs1" />
  <sodipodi:namedview
     id="namedview1"
     pagecolor="#505050"
     bordercolor="#eeeeee"
     borderopacity="1"
     inkscape:showpageshadow="0"
     inkscape:pageopacity="0"
     inkscape:pagecheckerboard="0"
     inkscape:deskcolor="#505050" />
  <path
     d="m 10.066195,0.87019531 a 2.89,2.89 0 0 0 -4.1339997,0 l -0.622,0.63799999 -0.89,-0.011 a 2.89,2.89 0 0 0 -2.924,2.924 l 0.01,0.89 -0.63599999,0.622 a 2.89,2.89 0 0 0 0,4.1339997 l 0.63699999,0.622 -0.011,0.89 a 2.89,2.89 0 0 0 2.924,2.924 l 0.89,-0.01 0.622,0.636 a 2.89,2.89 0 0 0 4.1339997,0 l 0.622,-0.637 0.89,0.011 a 2.89,2.89 0 0 0 2.924,-2.924 l -0.01,-0.89 0.636,-0.622 a 2.89,2.89 0 0 0 0,-4.1339997 l -0.637,-0.622 0.011,-0.89 a 2.89,2.89 0 0 0 -2.924,-2.924 l -0.89,0.01 z m 0.287,5.98399999 -2.9999997,3 a 0.5,0.5 0 0 1 -0.708,0 l -1.5,-1.5 a 0.5006316,0.5006316 0 1 1 0.708,-0.708 l 1.146,1.147 2.646,-2.647 a 0.5006316,0.5006316 0 0 1 0.7079997,0.708"
     id="path1"
     style="fill:#ffffff" />
</svg>
