<?xml version="1.0" encoding="UTF-8" standalone="no"?>
<svg
   width="16"
   height="15.333214"
   fill="currentColor"
   class="bi bi-chat-square-text"
   viewBox="0 0 16 15.333214"
   version="1.1"
   id="svg2"
   sodipodi:docname="chat-square-text.svg"
   xmlns:inkscape="http://www.inkscape.org/namespaces/inkscape"
   xmlns:sodipodi="http://sodipodi.sourceforge.net/DTD/sodipodi-0.dtd"
   xmlns="http://www.w3.org/2000/svg"
   xmlns:svg="http://www.w3.org/2000/svg">
  <defs
     id="defs2" />
  <sodipodi:namedview
     id="namedview2"
     pagecolor="#505050"
     bordercolor="#eeeeee"
     borderopacity="1"
     inkscape:showpageshadow="0"
     inkscape:pageopacity="0"
     inkscape:pagecheckerboard="0"
     inkscape:deskcolor="#505050" />
  <path
     d="m 14,1.0002143 a 1,1 0 0 1 1,1 v 7.9999997 a 1,1 0 0 1 -1,1 h -2.5 a 2,2 0 0 0 -1.6,0.8 l -1.9,2.533 -1.9,-2.533 a 2,2 0 0 0 -1.6,-0.8 H 2 a 1,1 0 0 1 -1,-1 V 2.0002143 a 1,1 0 0 1 1,-1 z M 2,2.142625e-4 A 2,2 0 0 0 0,2.0002143 v 7.9999997 a 2,2 0 0 0 2,2 h 2.5 a 1,1 0 0 1 0.8,0.4 l 1.9,2.533 a 1,1 0 0 0 1.6,0 l 1.9,-2.533 a 1,1 0 0 1 0.8,-0.4 H 14 a 2,2 0 0 0 2,-2 V 2.0002143 A 2,2 0 0 0 14,2.142625e-4 Z"
     id="path1"
     style="fill:#ffffff" />
  <path
     d="m 3,3.5002143 a 0.5,0.5 0 0 1 0.5,-0.5 h 9 a 0.5,0.5 0 0 1 0,1 h -9 a 0.5,0.5 0 0 1 -0.5,-0.5 m 0,2.5 a 0.5,0.5 0 0 1 0.5,-0.5 h 9 a 0.5,0.5 0 0 1 0,1 h -9 a 0.5,0.5 0 0 1 -0.5,-0.5 m 0,2.5 a 0.5,0.5 0 0 1 0.5,-0.5 h 5 a 0.5,0.5 0 0 1 0,1 h -5 a 0.5,0.5 0 0 1 -0.5,-0.5"
     id="path2"
     style="fill:#ffffff" />
  <path
     style="fill:#ffffff;stroke-width:0.0314342"
     d="M 7.6767444,15.260576 C 7.4163747,15.165004 7.3164052,15.052115 6.3418326,13.753149 5.3179885,12.38851 5.193705,12.235312 5.0267731,12.132143 4.8129408,11.999987 4.7633694,11.995922 3.1434185,11.977679 l -1.5717093,-0.0177 -0.2119151,-0.08197 C 1.053688,11.759593 0.82217257,11.610638 0.60194496,11.390411 0.37386823,11.162334 0.23133284,10.936454 0.1156531,10.619769 L 0.03143418,10.389212 0.02292293,6.1074237 C 0.0134081,1.3207579 0.00239389,1.5780843 0.23671736,1.1125192 0.54300218,0.50397781 1.11131,0.11110712 1.799348,0.03227399 c 0.3755736,-0.04303199 12.025731,-0.04303199 12.401304,0 0.688038,0.07883313 1.256346,0.47170382 1.562631,1.08024521 0.234323,0.4655651 0.223309,0.2082387 0.213794,4.9949045 l -0.0085,4.2817883 -0.08422,0.230557 c -0.218469,0.59808 -0.640239,1.024628 -1.244141,1.258235 l -0.211915,0.08198 -1.571709,0.0177 c -1.615445,0.01819 -1.670639,0.02266 -1.879308,0.152276 -0.171727,0.106666 -0.297244,0.260971 -1.3199777,1.622715 -1.0122323,1.347762 -1.0701592,1.412593 -1.3505584,1.511524 -0.157799,0.05567 -0.4733994,0.05386 -0.6299935,-0.0036 z m 1.3693337,-2.289033 c 1.0909559,-1.453065 1.1783939,-1.549479 1.5850659,-1.747765 0.408576,-0.199214 0.412107,-0.199579 2.115418,-0.219301 l 1.555992,-0.01802 0.158433,-0.08363 c 0.212973,-0.112421 0.40013,-0.322845 0.482168,-0.542113 l 0.06756,-0.180561 -0.0083,-4.2333896 -0.0083,-4.23339 -0.08331,-0.157171 C 14.798118,1.3436423 14.620686,1.1713871 14.412574,1.0725224 L 14.239686,0.99039108 H 8 1.7603143 l -0.172888,0.0821313 c -0.2081122,0.098865 -0.385544,0.2711199 -0.4982195,0.483684 l -0.083313,0.157171 -0.008303,4.23339 -0.008303,4.2333896 0.0675564,0.180561 c 0.082039,0.219268 0.2691951,0.429692 0.4821682,0.542113 l 0.1584329,0.08363 1.5559921,0.01802 c 1.703311,0.01972 1.7068417,0.02009 2.1154175,0.219301 0.4066723,0.198286 0.4941105,0.2947 1.5850663,1.747765 0.562694,0.749459 1.0334291,1.362655 1.0460788,1.362655 0.01265,0 0.4833848,-0.613196 1.0460781,-1.362659 z"
     id="path3" />
  <path
     style="fill:#ffffff;stroke-width:0.0314342"
     d="M 3.2934994,8.9245932 C 2.9629023,8.76095 2.9283806,8.3195485 3.2293882,8.1048536 l 0.1026354,-0.073205 2.636807,-0.00839 2.6368071,-0.00839 0.1331694,0.078043 C 9.0820835,8.2940891 9.0417427,8.7876194 8.6689861,8.9471113 8.5858452,8.9826849 8.1100992,8.9903867 5.9970804,8.9903663 3.4521085,8.9903418 3.424994,8.9896822 3.2934994,8.9245932 Z"
     id="path4" />
  <path
     style="fill:#ffffff;stroke-width:0.0314342"
     d="M 3.2630046,6.4141712 C 3.0787667,6.3018342 2.9808114,6.0737017 3.0332292,5.8790369 3.0730345,5.7312112 3.2462055,5.5663657 3.3989103,5.5309365 c 0.160446,-0.037225 9.0417337,-0.037225 9.2021797,0 0.152705,0.035429 0.325876,0.2002747 0.365681,0.3481004 0.05242,0.1946648 -0.04554,0.4227973 -0.229775,0.5351343 -0.09837,0.05998 -0.196611,0.06125 -4.736996,0.06125 -4.5403854,0 -4.6386255,-0.00127 -4.7369954,-0.06125 z"
     id="path5" />
  <path
     style="fill:#ffffff;stroke-width:0.0314342"
     d="M 3.2934994,3.9265579 C 2.9624171,3.7626745 2.9299531,3.3250401 3.2321676,3.0997673 l 0.088749,-0.066154 H 8 12.679083 l 0.08875,0.066154 c 0.303384,0.2261446 0.269451,0.6661587 -0.06381,0.8274898 -0.134123,0.064928 -0.146488,0.065099 -4.7060839,0.065074 l -4.571608,-2.48e-5 z"
     id="path6" />
</svg>
