<?xml version="1.0" encoding="UTF-8" standalone="no"?>
<svg
   width="16"
   height="16"
   fill="currentColor"
   class="bi bi-caret-up-square-fill"
   viewBox="0 0 16 16"
   version="1.1"
   id="svg1"
   sodipodi:docname="chevronUp.svg"
   xmlns:inkscape="http://www.inkscape.org/namespaces/inkscape"
   xmlns:sodipodi="http://sodipodi.sourceforge.net/DTD/sodipodi-0.dtd"
   xmlns="http://www.w3.org/2000/svg"
   xmlns:svg="http://www.w3.org/2000/svg">
  <defs
     id="defs1" />
  <sodipodi:namedview
     id="namedview1"
     pagecolor="#505050"
     bordercolor="#eeeeee"
     borderopacity="1"
     inkscape:showpageshadow="0"
     inkscape:pageopacity="0"
     inkscape:pagecheckerboard="0"
     inkscape:deskcolor="#505050" />
  <path
     d="M 0,2 A 2,2 0 0 1 2,0 h 12 a 2,2 0 0 1 2,2 v 12 a 2,2 0 0 1 -2,2 H 2 A 2,2 0 0 1 0,14 Z m 4,9 h 8 a 0.5,0.5 0 0 0 0.374,-0.832 l -4,-4.5 a 0.5,0.5 0 0 0 -0.748,0 l -4,4.5 A 0.5,0.5 0 0 0 4,11"
     id="path1"
     style="fill:#ff5555" />
</svg>
