<?xml version="1.0" encoding="UTF-8" standalone="no"?>
<svg
   width="16"
   height="14"
   fill="currentColor"
   class="bi bi-envelope-check-fill"
   viewBox="0 0 16 14"
   version="1.1"
   id="svg2"
   sodipodi:docname="envelope-check-fill.svg"
   xmlns:inkscape="http://www.inkscape.org/namespaces/inkscape"
   xmlns:sodipodi="http://sodipodi.sourceforge.net/DTD/sodipodi-0.dtd"
   xmlns="http://www.w3.org/2000/svg"
   xmlns:svg="http://www.w3.org/2000/svg">
  <defs
     id="defs2" />
  <sodipodi:namedview
     id="namedview2"
     pagecolor="#505050"
     bordercolor="#eeeeee"
     borderopacity="1"
     inkscape:showpageshadow="0"
     inkscape:pageopacity="0"
     inkscape:pagecheckerboard="0"
     inkscape:deskcolor="#505050" />
  <path
     d="M 0.05,1.555 A 2,2 0 0 1 2,0 h 12 a 2,2 0 0 1 1.95,1.555 L 8,6.414 Z M 0,2.697 V 9.801 L 5.803,6.243 Z M 6.761,6.83 0.191,10.856 A 2,2 0 0 0 2,12 H 8.256 A 4.5,4.5 0 0 1 8,10.5 4.49,4.49 0 0 1 9.606,7.054 L 9.239,6.829 8,7.586 Z M 16,2.697 V 7.671 A 4.5,4.5 0 0 0 12.5,6 4.5,4.5 0 0 0 10.535,6.45 L 10.197,6.243 Z"
     id="path1"
     style="fill:#00ff00"
     inkscape:export-filename="path1.png"
     inkscape:export-xdpi="1371.4301"
     inkscape:export-ydpi="1371.4301" />
  <path
     d="m 16,10.5 a 3.5,3.5 0 1 1 -7,0 3.5,3.5 0 0 1 7,0 M 14.007,8.821 a 0.5,0.5 0 0 0 -0.686,0.172 l -1.17,1.95 -0.547,-0.547 a 0.5006316,0.5006316 0 0 0 -0.708,0.708 l 0.774,0.773 a 0.75,0.75 0 0 0 1.174,-0.144 L 14.179,9.507 A 0.5,0.5 0 0 0 14.007,8.821"
     id="path2"
     style="fill:#00ff00" />
</svg>
